<svg xmlns="http://www.w3.org/2000/svg" width="1200" height="330" viewBox="0 0 1200 330" role="img" aria-label="lifcc interlace weave map" data-mode="dark">
      <style>
    .display{font-family:"Iowan Old Style","Palatino Linotype",Palatino,serif}.body{font-family:Optima,Candara,"Avenir Next",sans-serif}.mono{font-family:ui-monospace,SFMono-Regular,Menlo,monospace}
    .interlace-shuttle{stroke-dasharray:1 99;animation:interlace-shuttle 7.6s linear infinite}
    .interlace-settle{animation:interlace-settle .7s cubic-bezier(.2,.75,.2,1) both}
    @keyframes interlace-shuttle{to{stroke-dashoffset:-100}}@keyframes interlace-settle{from{opacity:.2;transform:translateY(7px)}to{opacity:1;transform:translateY(0)}}
    @media(prefers-reduced-motion:reduce){.interlace-shuttle,.interlace-settle{animation:none}}
  </style><rect width="1200" height="330" fill="#241F19"/>
      <text x="32" y="28" class="mono" font-size="8" letter-spacing="2.6" fill="#A84D3B">INTERLACE / WEAVE MAP</text><text x="1170" y="28" text-anchor="end" class="mono" font-size="8" letter-spacing="1.8" fill="#B7A990">08 THREADS / ONE CLOTH</text>
      <path d="M32 40H1170" stroke="#5B5042"/><path d="M358 44V306" stroke="#5B5042"/>
      <defs><clipPath id="interlace-loop-warp-over"><rect x="474.625" y="48.625" width="22.75" height="22.75"/><rect x="474.625" y="113.19642857142857" width="22.75" height="22.75"/><rect x="474.625" y="177.76785714285714" width="22.75" height="22.75"/><rect x="474.625" y="242.33928571428572" width="22.75" height="22.75"/><rect x="584.625" y="80.91071428571428" width="22.75" height="22.75"/><rect x="584.625" y="145.48214285714286" width="22.75" height="22.75"/><rect x="584.625" y="210.05357142857142" width="22.75" height="22.75"/><rect x="584.625" y="274.625" width="22.75" height="22.75"/><rect x="694.625" y="48.625" width="22.75" height="22.75"/><rect x="694.625" y="113.19642857142857" width="22.75" height="22.75"/><rect x="694.625" y="177.76785714285714" width="22.75" height="22.75"/><rect x="694.625" y="242.33928571428572" width="22.75" height="22.75"/><rect x="804.625" y="80.91071428571428" width="22.75" height="22.75"/><rect x="804.625" y="145.48214285714286" width="22.75" height="22.75"/><rect x="804.625" y="210.05357142857142" width="22.75" height="22.75"/><rect x="804.625" y="274.625" width="22.75" height="22.75"/><rect x="914.625" y="48.625" width="22.75" height="22.75"/><rect x="914.625" y="113.19642857142857" width="22.75" height="22.75"/><rect x="914.625" y="177.76785714285714" width="22.75" height="22.75"/><rect x="914.625" y="242.33928571428572" width="22.75" height="22.75"/><rect x="1024.625" y="80.91071428571428" width="22.75" height="22.75"/><rect x="1024.625" y="145.48214285714286" width="22.75" height="22.75"/><rect x="1024.625" y="210.05357142857142" width="22.75" height="22.75"/><rect x="1024.625" y="274.625" width="22.75" height="22.75"/><rect x="1134.625" y="48.625" width="22.75" height="22.75"/><rect x="1134.625" y="113.19642857142857" width="22.75" height="22.75"/><rect x="1134.625" y="177.76785714285714" width="22.75" height="22.75"/><rect x="1134.625" y="242.33928571428572" width="22.75" height="22.75"/></clipPath></defs>
    <g class="interlace-settle"><path d="M486 44C481 125.2 491 222.2 486 306" fill="none" stroke="#C09A61" stroke-width="18.75" stroke-linecap="butt"/><path d="M486 44C481 125.2 491 222.2 486 306" fill="none" stroke="#F4DDAF" stroke-width="1" stroke-opacity=".3"/><path d="M596 44C591 125.2 601 222.2 596 306" fill="none" stroke="#8A6843" stroke-width="18.75" stroke-linecap="butt"/><path d="M596 44C591 125.2 601 222.2 596 306" fill="none" stroke="#F4DDAF" stroke-width="1" stroke-opacity=".3"/><path d="M706 44C701 125.2 711 222.2 706 306" fill="none" stroke="#C09A61" stroke-width="18.75" stroke-linecap="butt"/><path d="M706 44C701 125.2 711 222.2 706 306" fill="none" stroke="#F4DDAF" stroke-width="1" stroke-opacity=".3"/><path d="M816 44C811 125.2 821 222.2 816 306" fill="none" stroke="#8A6843" stroke-width="18.75" stroke-linecap="butt"/><path d="M816 44C811 125.2 821 222.2 816 306" fill="none" stroke="#F4DDAF" stroke-width="1" stroke-opacity=".3"/><path d="M926 44C921 125.2 931 222.2 926 306" fill="none" stroke="#C09A61" stroke-width="18.75" stroke-linecap="butt"/><path d="M926 44C921 125.2 931 222.2 926 306" fill="none" stroke="#F4DDAF" stroke-width="1" stroke-opacity=".3"/><path d="M1036 44C1031 125.2 1041 222.2 1036 306" fill="none" stroke="#8A6843" stroke-width="18.75" stroke-linecap="butt"/><path d="M1036 44C1031 125.2 1041 222.2 1036 306" fill="none" stroke="#F4DDAF" stroke-width="1" stroke-opacity=".3"/><path d="M1146 44C1141 125.2 1151 222.2 1146 306" fill="none" stroke="#C09A61" stroke-width="18.75" stroke-linecap="butt"/><path d="M1146 44C1141 125.2 1151 222.2 1146 306" fill="none" stroke="#F4DDAF" stroke-width="1" stroke-opacity=".3"/><path d="M366 60C591.1 57 928.8 63 1170 60" fill="none" stroke="#A84D3B" stroke-width="18.75" stroke-linecap="butt"/><path d="M366 60C591.1 57 928.8 63 1170 60" fill="none" stroke="#F4DDAF" stroke-width="1" stroke-opacity=".24"/><path d="M366 92.28571428571428C591.1 89.28571428571428 928.8 95.28571428571428 1170 92.28571428571428" fill="none" stroke="#355969" stroke-width="18.75" stroke-linecap="butt"/><path d="M366 92.28571428571428C591.1 89.28571428571428 928.8 95.28571428571428 1170 92.28571428571428" fill="none" stroke="#F4DDAF" stroke-width="1" stroke-opacity=".24"/><path d="M366 124.57142857142857C591.1 121.57142857142857 928.8 127.57142857142857 1170 124.57142857142857" fill="none" stroke="#A84D3B" stroke-width="18.75" stroke-linecap="butt"/><path d="M366 124.57142857142857C591.1 121.57142857142857 928.8 127.57142857142857 1170 124.57142857142857" fill="none" stroke="#F4DDAF" stroke-width="1" stroke-opacity=".24"/><path d="M366 156.85714285714286C591.1 153.85714285714286 928.8 159.85714285714286 1170 156.85714285714286" fill="none" stroke="#355969" stroke-width="18.75" stroke-linecap="butt"/><path d="M366 156.85714285714286C591.1 153.85714285714286 928.8 159.85714285714286 1170 156.85714285714286" fill="none" stroke="#F4DDAF" stroke-width="1" stroke-opacity=".24"/><path d="M366 189.14285714285714C591.1 186.14285714285714 928.8 192.14285714285714 1170 189.14285714285714" fill="none" stroke="#A84D3B" stroke-width="18.75" stroke-linecap="butt"/><path d="M366 189.14285714285714C591.1 186.14285714285714 928.8 192.14285714285714 1170 189.14285714285714" fill="none" stroke="#F4DDAF" stroke-width="1" stroke-opacity=".24"/><path d="M366 221.42857142857142C591.1 218.42857142857142 928.8 224.42857142857142 1170 221.42857142857142" fill="none" stroke="#355969" stroke-width="18.75" stroke-linecap="butt"/><path d="M366 221.42857142857142C591.1 218.42857142857142 928.8 224.42857142857142 1170 221.42857142857142" fill="none" stroke="#F4DDAF" stroke-width="1" stroke-opacity=".24"/><path d="M366 253.71428571428572C591.1 250.71428571428572 928.8 256.7142857142857 1170 253.71428571428572" fill="none" stroke="#A84D3B" stroke-width="18.75" stroke-linecap="butt"/><path d="M366 253.71428571428572C591.1 250.71428571428572 928.8 256.7142857142857 1170 253.71428571428572" fill="none" stroke="#F4DDAF" stroke-width="1" stroke-opacity=".24"/><path d="M366 286C591.1 283 928.8 289 1170 286" fill="none" stroke="#355969" stroke-width="18.75" stroke-linecap="butt"/><path d="M366 286C591.1 283 928.8 289 1170 286" fill="none" stroke="#F4DDAF" stroke-width="1" stroke-opacity=".24"/><g clip-path="url(#interlace-loop-warp-over)"><path d="M486 44C481 125.2 491 222.2 486 306" fill="none" stroke="#C09A61" stroke-width="18.75" stroke-linecap="butt"/><path d="M486 44C481 125.2 491 222.2 486 306" fill="none" stroke="#F4DDAF" stroke-width="1" stroke-opacity=".3"/><path d="M596 44C591 125.2 601 222.2 596 306" fill="none" stroke="#8A6843" stroke-width="18.75" stroke-linecap="butt"/><path d="M596 44C591 125.2 601 222.2 596 306" fill="none" stroke="#F4DDAF" stroke-width="1" stroke-opacity=".3"/><path d="M706 44C701 125.2 711 222.2 706 306" fill="none" stroke="#C09A61" stroke-width="18.75" stroke-linecap="butt"/><path d="M706 44C701 125.2 711 222.2 706 306" fill="none" stroke="#F4DDAF" stroke-width="1" stroke-opacity=".3"/><path d="M816 44C811 125.2 821 222.2 816 306" fill="none" stroke="#8A6843" stroke-width="18.75" stroke-linecap="butt"/><path d="M816 44C811 125.2 821 222.2 816 306" fill="none" stroke="#F4DDAF" stroke-width="1" stroke-opacity=".3"/><path d="M926 44C921 125.2 931 222.2 926 306" fill="none" stroke="#C09A61" stroke-width="18.75" stroke-linecap="butt"/><path d="M926 44C921 125.2 931 222.2 926 306" fill="none" stroke="#F4DDAF" stroke-width="1" stroke-opacity=".3"/><path d="M1036 44C1031 125.2 1041 222.2 1036 306" fill="none" stroke="#8A6843" stroke-width="18.75" stroke-linecap="butt"/><path d="M1036 44C1031 125.2 1041 222.2 1036 306" fill="none" stroke="#F4DDAF" stroke-width="1" stroke-opacity=".3"/><path d="M1146 44C1141 125.2 1151 222.2 1146 306" fill="none" stroke="#C09A61" stroke-width="18.75" stroke-linecap="butt"/><path d="M1146 44C1141 125.2 1151 222.2 1146 306" fill="none" stroke="#F4DDAF" stroke-width="1" stroke-opacity=".3"/></g><path class="interlace-shuttle" pathLength="100" d="M366 196.26785714285714C591.1 193.26785714285714 928.8 199.26785714285714 1170 196.26785714285714" fill="none" stroke="#F8EBD4" stroke-width="2" stroke-opacity=".82" stroke-linecap="square"/></g><g class="interlace-settle" style="animation-delay:0ms">
        <rect x="32" y="53" width="4" height="14" fill="#00A7D1"/>
        <text x="48" y="63" class="body" font-size="10" font-weight="700" fill="#F1E5CF">DIRECT</text>
        <text x="184" y="63" class="display" font-size="10.5" font-style="italic" fill="#B7A990">sage</text>
        <text x="344" y="63" text-anchor="end" class="mono" font-size="7.5" fill="#B7A990">01</text>
      </g><g class="interlace-settle" style="animation-delay:38ms">
        <rect x="32" y="85.28571428571428" width="4" height="14" fill="#00A7D1"/>
        <text x="48" y="95.28571428571428" class="body" font-size="10" font-weight="700" fill="#F1E5CF">EXTEND</text>
        <text x="184" y="95.28571428571428" class="display" font-size="10.5" font-style="italic" fill="#B7A990">claude-skill-registry</text>
        <text x="344" y="95.28571428571428" text-anchor="end" class="mono" font-size="7.5" fill="#B7A990">02</text>
      </g><g class="interlace-settle" style="animation-delay:76ms">
        <rect x="32" y="117.57142857142857" width="4" height="14" fill="#00A7D1"/>
        <text x="48" y="127.57142857142857" class="body" font-size="10" font-weight="700" fill="#F1E5CF">TRUST</text>
        <text x="184" y="127.57142857142857" class="display" font-size="10.5" font-style="italic" fill="#B7A990">vibeguard</text>
        <text x="344" y="127.57142857142857" text-anchor="end" class="mono" font-size="7.5" fill="#B7A990">03</text>
      </g><g class="interlace-settle" style="animation-delay:114ms">
        <rect x="32" y="149.85714285714286" width="4" height="14" fill="#00A7D1"/>
        <text x="48" y="159.85714285714286" class="body" font-size="10" font-weight="700" fill="#F1E5CF">REMEMBER</text>
        <text x="184" y="159.85714285714286" class="display" font-size="10.5" font-style="italic" fill="#B7A990">remem</text>
        <text x="344" y="159.85714285714286" text-anchor="end" class="mono" font-size="7.5" fill="#B7A990">04</text>
      </g><g class="interlace-settle" style="animation-delay:152ms">
        <rect x="32" y="182.14285714285714" width="4" height="14" fill="#E84A8A"/>
        <text x="48" y="192.14285714285714" class="body" font-size="10" font-weight="700" fill="#F1E5CF">ORCHESTRATE</text>
        <text x="184" y="192.14285714285714" class="display" font-size="10.5" font-style="italic" fill="#B7A990">harness</text>
        <text x="344" y="192.14285714285714" text-anchor="end" class="mono" font-size="7.5" fill="#B7A990">05</text>
      </g><g class="interlace-settle" style="animation-delay:190ms">
        <rect x="32" y="214.42857142857142" width="4" height="14" fill="#E84A8A"/>
        <text x="48" y="224.42857142857142" class="body" font-size="10" font-weight="700" fill="#F1E5CF">ROUTE</text>
        <text x="184" y="224.42857142857142" class="display" font-size="10.5" font-style="italic" fill="#B7A990">litellm-rs</text>
        <text x="344" y="224.42857142857142" text-anchor="end" class="mono" font-size="7.5" fill="#B7A990">06</text>
      </g><g class="interlace-settle" style="animation-delay:228ms">
        <rect x="32" y="246.71428571428572" width="4" height="14" fill="#E84A8A"/>
        <text x="48" y="256.7142857142857" class="body" font-size="10" font-weight="700" fill="#F1E5CF">GOVERN</text>
        <text x="184" y="256.7142857142857" class="display" font-size="10.5" font-style="italic" fill="#B7A990">specrail</text>
        <text x="344" y="256.7142857142857" text-anchor="end" class="mono" font-size="7.5" fill="#B7A990">07</text>
      </g><g class="interlace-settle" style="animation-delay:266ms">
        <rect x="32" y="279" width="4" height="14" fill="#E84A8A"/>
        <text x="48" y="289" class="body" font-size="10" font-weight="700" fill="#F1E5CF">KEEP</text>
        <text x="184" y="289" class="display" font-size="10.5" font-style="italic" fill="#B7A990">keepline</text>
        <text x="344" y="289" text-anchor="end" class="mono" font-size="7.5" fill="#B7A990">08</text>
      </g>
      <text x="32" y="318" class="mono" font-size="7.5" letter-spacing="1.8" fill="#B7A990">AI AGENT INFRASTRUCTURE</text>
      <rect x="1088" y="314" width="48" height="6" fill="#00A7D1"/><rect x="1140" y="314" width="30" height="6" fill="#E84A8A"/>
    </svg>