<svg xmlns="http://www.w3.org/2000/svg" width="1200" height="360" viewBox="0 0 1200 360" role="img" aria-label="lifcc interlaced portfolio" data-mode="dark">
      <style>
    .display{font-family:"Iowan Old Style","Palatino Linotype",Palatino,serif}.body{font-family:Optima,Candara,"Avenir Next",sans-serif}.mono{font-family:ui-monospace,SFMono-Regular,Menlo,monospace}
    .interlace-shuttle{stroke-dasharray:1 99;animation:interlace-shuttle 7.6s linear infinite}
    .interlace-settle{animation:interlace-settle .7s cubic-bezier(.2,.75,.2,1) both}
    @keyframes interlace-shuttle{to{stroke-dashoffset:-100}}@keyframes interlace-settle{from{opacity:.2;transform:translateY(7px)}to{opacity:1;transform:translateY(0)}}
    @media(prefers-reduced-motion:reduce){.interlace-shuttle,.interlace-settle{animation:none}}
  </style><rect width="1200" height="360" fill="#241F19"/>
      <path d="M600 24V336" stroke="#5B5042"/><path d="M42 45H570" stroke="#5B5042"/>
      <g class="interlace-settle"><text x="42" y="32" class="mono" font-size="8" letter-spacing="2.6" fill="#A84D3B">INTERLACE / OPEN LOOM</text><text x="570" y="32" text-anchor="end" class="mono" font-size="8" letter-spacing="1.5" fill="#B7A990">LIFCC</text>
      <text x="40" y="126" class="display" font-size="52" font-weight="700" letter-spacing="-1.1" fill="#F1E5CF">AI AGENT</text><text x="40" y="178" class="display" font-size="52" font-style="italic" letter-spacing="-1.1" fill="#F1E5CF">INFRASTRUCTURE</text>
      <path d="M42 230H86" stroke="#355969" stroke-width="6"/><text x="42" y="260" class="body" font-size="12" fill="#B7A990">Building the systems around coding agents — from skills and trust…</text>
      <text x="42" y="302" class="mono" font-size="8" letter-spacing="1.8" fill="#F1E5CF">06 PROOF THREADS</text><text x="238" y="302" class="mono" font-size="8" letter-spacing="1.8" fill="#F1E5CF">08 WARP LAYERS</text></g>
      <text x="624" y="31" class="mono" font-size="8" letter-spacing="2.2" fill="#355969">SELVEDGE / SELECTED WORK</text><defs><clipPath id="interlace-hero-warp-over"><rect x="818.5" y="56.5" width="31" height="31"/><rect x="818.5" y="142.9" width="31" height="31"/><rect x="818.5" y="229.3" width="31" height="31"/><rect x="887.5" y="99.7" width="31" height="31"/><rect x="887.5" y="186.1" width="31" height="31"/><rect x="887.5" y="272.5" width="31" height="31"/><rect x="956.5" y="56.5" width="31" height="31"/><rect x="956.5" y="142.9" width="31" height="31"/><rect x="956.5" y="229.3" width="31" height="31"/><rect x="1025.5" y="99.7" width="31" height="31"/><rect x="1025.5" y="186.1" width="31" height="31"/><rect x="1025.5" y="272.5" width="31" height="31"/><rect x="1094.5" y="56.5" width="31" height="31"/><rect x="1094.5" y="142.9" width="31" height="31"/><rect x="1094.5" y="229.3" width="31" height="31"/></clipPath></defs>
    <g class="interlace-settle"><path d="M834 48C829 130.5 839 228.9 834 314" fill="none" stroke="#C09A61" stroke-width="27" stroke-linecap="butt"/><path d="M834 48C829 130.5 839 228.9 834 314" fill="none" stroke="#F4DDAF" stroke-width="1" stroke-opacity=".3"/><path d="M903 48C898 130.5 908 228.9 903 314" fill="none" stroke="#8A6843" stroke-width="27" stroke-linecap="butt"/><path d="M903 48C898 130.5 908 228.9 903 314" fill="none" stroke="#F4DDAF" stroke-width="1" stroke-opacity=".3"/><path d="M972 48C967 130.5 977 228.9 972 314" fill="none" stroke="#C09A61" stroke-width="27" stroke-linecap="butt"/><path d="M972 48C967 130.5 977 228.9 972 314" fill="none" stroke="#F4DDAF" stroke-width="1" stroke-opacity=".3"/><path d="M1041 48C1036 130.5 1046 228.9 1041 314" fill="none" stroke="#8A6843" stroke-width="27" stroke-linecap="butt"/><path d="M1041 48C1036 130.5 1046 228.9 1041 314" fill="none" stroke="#F4DDAF" stroke-width="1" stroke-opacity=".3"/><path d="M1110 48C1105 130.5 1115 228.9 1110 314" fill="none" stroke="#C09A61" stroke-width="27" stroke-linecap="butt"/><path d="M1110 48C1105 130.5 1115 228.9 1110 314" fill="none" stroke="#F4DDAF" stroke-width="1" stroke-opacity=".3"/><path d="M624 72C776.9 69 1006.2 75 1170 72" fill="none" stroke="#A84D3B" stroke-width="27" stroke-linecap="butt"/><path d="M624 72C776.9 69 1006.2 75 1170 72" fill="none" stroke="#F4DDAF" stroke-width="1" stroke-opacity=".24"/><path d="M624 115.2C776.9 112.2 1006.2 118.2 1170 115.2" fill="none" stroke="#355969" stroke-width="27" stroke-linecap="butt"/><path d="M624 115.2C776.9 112.2 1006.2 118.2 1170 115.2" fill="none" stroke="#F4DDAF" stroke-width="1" stroke-opacity=".24"/><path d="M624 158.4C776.9 155.4 1006.2 161.4 1170 158.4" fill="none" stroke="#A84D3B" stroke-width="27" stroke-linecap="butt"/><path d="M624 158.4C776.9 155.4 1006.2 161.4 1170 158.4" fill="none" stroke="#F4DDAF" stroke-width="1" stroke-opacity=".24"/><path d="M624 201.6C776.9 198.6 1006.2 204.6 1170 201.6" fill="none" stroke="#355969" stroke-width="27" stroke-linecap="butt"/><path d="M624 201.6C776.9 198.6 1006.2 204.6 1170 201.6" fill="none" stroke="#F4DDAF" stroke-width="1" stroke-opacity=".24"/><path d="M624 244.8C776.9 241.8 1006.2 247.8 1170 244.8" fill="none" stroke="#A84D3B" stroke-width="27" stroke-linecap="butt"/><path d="M624 244.8C776.9 241.8 1006.2 247.8 1170 244.8" fill="none" stroke="#F4DDAF" stroke-width="1" stroke-opacity=".24"/><path d="M624 288C776.9 285 1006.2 291 1170 288" fill="none" stroke="#355969" stroke-width="27" stroke-linecap="butt"/><path d="M624 288C776.9 285 1006.2 291 1170 288" fill="none" stroke="#F4DDAF" stroke-width="1" stroke-opacity=".24"/><g clip-path="url(#interlace-hero-warp-over)"><path d="M834 48C829 130.5 839 228.9 834 314" fill="none" stroke="#C09A61" stroke-width="27" stroke-linecap="butt"/><path d="M834 48C829 130.5 839 228.9 834 314" fill="none" stroke="#F4DDAF" stroke-width="1" stroke-opacity=".3"/><path d="M903 48C898 130.5 908 228.9 903 314" fill="none" stroke="#8A6843" stroke-width="27" stroke-linecap="butt"/><path d="M903 48C898 130.5 908 228.9 903 314" fill="none" stroke="#F4DDAF" stroke-width="1" stroke-opacity=".3"/><path d="M972 48C967 130.5 977 228.9 972 314" fill="none" stroke="#C09A61" stroke-width="27" stroke-linecap="butt"/><path d="M972 48C967 130.5 977 228.9 972 314" fill="none" stroke="#F4DDAF" stroke-width="1" stroke-opacity=".3"/><path d="M1041 48C1036 130.5 1046 228.9 1041 314" fill="none" stroke="#8A6843" stroke-width="27" stroke-linecap="butt"/><path d="M1041 48C1036 130.5 1046 228.9 1041 314" fill="none" stroke="#F4DDAF" stroke-width="1" stroke-opacity=".3"/><path d="M1110 48C1105 130.5 1115 228.9 1110 314" fill="none" stroke="#C09A61" stroke-width="27" stroke-linecap="butt"/><path d="M1110 48C1105 130.5 1115 228.9 1110 314" fill="none" stroke="#F4DDAF" stroke-width="1" stroke-opacity=".3"/></g><path class="interlace-shuttle" pathLength="100" d="M624 211.85999999999999C776.9 208.85999999999999 1006.2 214.85999999999999 1170 211.85999999999999" fill="none" stroke="#F8EBD4" stroke-width="2" stroke-opacity=".82" stroke-linecap="square"/></g><g class="interlace-settle" style="animation-delay:0ms">
        <rect x="626" y="64" width="4" height="16" fill="#00A7D1"/>
        <text x="643" y="76" class="body" font-size="11" font-weight="700" fill="#F8EBD4">claude-skill-regi…</text>
        <text x="816" y="76" text-anchor="end" class="mono" font-size="7.5" letter-spacing="1.1" fill="#F8EBD4">EXTEND</text>
        <text x="1155" y="76" text-anchor="end" class="mono" font-size="7" fill="#F8EBD4">01</text>
      </g><g class="interlace-settle" style="animation-delay:55ms">
        <rect x="626" y="107.2" width="4" height="16" fill="#00A7D1"/>
        <text x="643" y="119.2" class="body" font-size="11" font-weight="700" fill="#F8EBD4">spellbook</text>
        <text x="816" y="119.2" text-anchor="end" class="mono" font-size="7.5" letter-spacing="1.1" fill="#F8EBD4">EXTEND</text>
        <text x="1155" y="119.2" text-anchor="end" class="mono" font-size="7" fill="#F8EBD4">02</text>
      </g><g class="interlace-settle" style="animation-delay:110ms">
        <rect x="626" y="150.4" width="4" height="16" fill="#E84A8A"/>
        <text x="643" y="162.4" class="body" font-size="11" font-weight="700" fill="#F8EBD4">litellm-rs</text>
        <text x="816" y="162.4" text-anchor="end" class="mono" font-size="7.5" letter-spacing="1.1" fill="#F8EBD4">ROUTE</text>
        <text x="1155" y="162.4" text-anchor="end" class="mono" font-size="7" fill="#F8EBD4">03</text>
      </g><g class="interlace-settle" style="animation-delay:165ms">
        <rect x="626" y="193.6" width="4" height="16" fill="#E84A8A"/>
        <text x="643" y="205.6" class="body" font-size="11" font-weight="700" fill="#F8EBD4">harness</text>
        <text x="816" y="205.6" text-anchor="end" class="mono" font-size="7.5" letter-spacing="1.1" fill="#F8EBD4">ORCHESTRATE</text>
        <text x="1155" y="205.6" text-anchor="end" class="mono" font-size="7" fill="#F8EBD4">04</text>
      </g><g class="interlace-settle" style="animation-delay:220ms">
        <rect x="626" y="236.8" width="4" height="16" fill="#E84A8A"/>
        <text x="643" y="248.8" class="body" font-size="11" font-weight="700" fill="#F8EBD4">vibeguard</text>
        <text x="816" y="248.8" text-anchor="end" class="mono" font-size="7.5" letter-spacing="1.1" fill="#F8EBD4">TRUST</text>
        <text x="1155" y="248.8" text-anchor="end" class="mono" font-size="7" fill="#F8EBD4">05</text>
      </g><g class="interlace-settle" style="animation-delay:275ms">
        <rect x="626" y="280" width="4" height="16" fill="#E84A8A"/>
        <text x="643" y="292" class="body" font-size="11" font-weight="700" fill="#F8EBD4">remem</text>
        <text x="816" y="292" text-anchor="end" class="mono" font-size="7.5" letter-spacing="1.1" fill="#F8EBD4">REMEMBER</text>
        <text x="1155" y="292" text-anchor="end" class="mono" font-size="7" fill="#F8EBD4">06</text>
      </g><text x="42" y="334" class="mono" font-size="8" letter-spacing="1.5" fill="#B7A990">STUDIO / BEIJING · UTC+8</text>
      <path d="M24 336H1176" stroke="#5B5042"/><rect x="1128" y="332" width="48" height="8" fill="#00A7D1"/><rect x="1096" y="332" width="24" height="8" fill="#E84A8A"/>
    </svg>