<svg xmlns="http://www.w3.org/2000/svg" width="1200" height="360" viewBox="0 0 1200 360" role="img" aria-label="lifcc foundry floor profile" data-mode="dark">
      <defs>
    <pattern id="forge-grit" width="34" height="34" patternUnits="userSpaceOnUse"><circle cx="6" cy="8" r="1" fill="#3F3226" fill-opacity=".3"/><circle cx="24" cy="26" r=".8" fill="#3F3226" fill-opacity=".22"/></pattern>
    <filter id="forge-heat" x="0" y="0" width="100%" height="100%"><feTurbulence type="fractalNoise" baseFrequency=".55" numOctaves="2" seed="7"/><feColorMatrix values="1 0 0 0 0 0 1 0 0 0 0 0 1 0 0 0 0 0 .03 0"/></filter>
    <g id="forge-ingot"><path d="M-11 6H11L8-6H-8Z" fill="none" stroke="#8B95A2" stroke-width="1.6"/><path d="M-6 6L-4-6M4-6L6 6" stroke="#8B95A2" stroke-opacity=".55"/></g>
  </defs><style>
    .forge-serif{font-family:Iowan Old Style,Palatino Linotype,Book Antiqua,Georgia,serif}.forge-label{font-family:Avenir Next Condensed,Arial Narrow,sans-serif}.forge-mono{font-family:ui-monospace,SFMono-Regular,Menlo,monospace}
    .forge-pour{stroke-dasharray:8 12;animation:forge-pour 5.5s linear infinite}.forge-glow{animation:forge-glow 2.8s ease-in-out infinite}.forge-spark{transform-box:fill-box;transform-origin:center;animation:forge-spark 3.1s ease-in-out infinite}.forge-rise{animation:forge-rise .62s cubic-bezier(.2,.75,.2,1) both}
    @keyframes forge-pour{to{stroke-dashoffset:-140}}@keyframes forge-glow{50%{opacity:.45}}@keyframes forge-spark{0%,100%{transform:translateY(0);opacity:.9}55%{transform:translateY(-5px);opacity:.35}}@keyframes forge-rise{from{opacity:.16;transform:translateY(7px)}to{opacity:1;transform:translateY(0)}}
    @media(prefers-reduced-motion:reduce){.forge-pour,.forge-glow,.forge-spark,.forge-rise{animation:none}}
  </style><rect width="1200" height="360" fill="#0B0908"/><rect x="14" y="14" width="1172" height="332" fill="#151010" stroke="#3F3226"/><rect x="14" y="14" width="1172" height="332" fill="url(#forge-grit)"/><rect x="14" y="14" width="1172" height="332" filter="url(#forge-heat)" opacity=".42" pointer-events="none"/>
      <rect x="30" y="30" width="500" height="300" fill="#201713" fill-opacity=".6" stroke="#3F3226"/><path d="M545 30V330" stroke="#3F3226"/><path d="M585 58V322" stroke="#8B95A2" stroke-opacity=".55"/>
      <path d="M448 54H492L486 72H454Z" fill="none" stroke="#8B95A2" stroke-width="2"/><path class="forge-pour" d="M470 74C474 130 466 210 452 268" fill="none" stroke="#FF7C1E" stroke-width="3"/><circle class="forge-spark" cx="484" cy="150" r="1.9" fill="#FF7C1E"/><circle class="forge-spark" style="animation-delay:.9s" cx="458" cy="205" r="1.6" fill="#FF7C1E"/><circle class="forge-glow" cx="452" cy="272" r="4.5" fill="#FF7C1E"/><use href="#forge-ingot" transform="translate(452 290)"/><use href="#forge-ingot" transform="translate(492 290)"/>
      <g class="forge-rise"><text x="50" y="49" class="forge-mono" font-size="8" letter-spacing="2.3" fill="#FF7C1E">FOUNDRY / CASTING FLOOR</text><text x="50" y="82" class="forge-label" font-size="12" font-weight="800" letter-spacing="2" fill="#F6EDDB">LIFCC</text>
      <text x="48" y="133" class="forge-serif" font-size="36" font-weight="700" fill="#F6EDDB">AI AGENT</text><text x="48" y="169" class="forge-serif" font-size="36" font-style="italic" fill="#F6EDDB">INFRASTRUCTURE</text>
      <path d="M50 210H132" stroke="#FF7C1E" stroke-width="4"/><text x="50" y="238" class="forge-label" font-size="11" fill="#A99C86">Building the systems around coding agents — from skills and trust to memo…</text>
      <text x="50" y="276" class="forge-mono" font-size="8" letter-spacing="1.5" fill="#F6EDDB">06 CASTS POURED · 08 ALLOY LAYERS</text><text x="50" y="304" class="forge-mono" font-size="8" letter-spacing="1.6" fill="#A99C86">YARD / BEIJING · UTC+8</text></g>
      <text x="660" y="47" class="forge-serif" font-size="16" font-style="italic" fill="#F6EDDB">Master casts</text><text x="1142" y="47" text-anchor="end" class="forge-mono" font-size="8" letter-spacing="1.4" fill="#A99C86">HEAT / MAJIAYU000</text><g class="forge-rise" style="animation-delay:100ms">
        <path d="M585 151.5C622 151.5 644 70 686 70" fill="none" stroke="#FF7C1E" stroke-opacity=".72"/><path class="forge-pour" d="M585 151.5C622 151.5 644 70 686 70" fill="none" stroke="#FF7C1E" stroke-width="1.5"/>
        <use href="#forge-ingot" transform="translate(700 70)"/><circle class="forge-spark" style="animation-delay:0.00s" cx="714" cy="61" r="1.8" fill="#FF7C1E"/>
        <text x="724" y="66" class="forge-label" font-size="12" font-weight="800" fill="#F6EDDB">claude-skill-registry</text><text x="1142" y="66" text-anchor="end" class="forge-mono" font-size="7.5" letter-spacing="1.3" fill="#FF7C1E">EXTEND</text>
        <text x="724" y="83" class="forge-label" font-size="8.7" fill="#A99C86">The comprehensive discovery layer for Claude Code skills.</text><path d="M724 92H1142" stroke="#3F3226"/>
      </g><g class="forge-rise" style="animation-delay:155ms">
        <path d="M585 160.5C622 160.5 644 114 686 114" fill="none" stroke="#FF7C1E" stroke-opacity=".72"/><path class="forge-pour" d="M585 160.5C622 160.5 644 114 686 114" fill="none" stroke="#FF7C1E" stroke-width="1.5"/>
        <use href="#forge-ingot" transform="translate(700 114)"/><circle class="forge-spark" style="animation-delay:0.43s" cx="714" cy="105" r="1.8" fill="#FF7C1E"/>
        <text x="724" y="110" class="forge-label" font-size="12" font-weight="800" fill="#F6EDDB">spellbook</text><text x="1142" y="110" text-anchor="end" class="forge-mono" font-size="7.5" letter-spacing="1.3" fill="#FF7C1E">EXTEND</text>
        <text x="724" y="127" class="forge-label" font-size="8.7" fill="#A99C86">Cross-runtime skills for Claude Code, Codex, and multi-a…</text><path d="M724 136H1142" stroke="#3F3226"/>
      </g><g class="forge-rise" style="animation-delay:210ms">
        <path d="M585 169.5C622 169.5 644 158 686 158" fill="none" stroke="#66A9CC" stroke-opacity=".72"/><path class="forge-pour" d="M585 169.5C622 169.5 644 158 686 158" fill="none" stroke="#FF7C1E" stroke-width="1.5"/>
        <use href="#forge-ingot" transform="translate(700 158)"/><circle class="forge-spark" style="animation-delay:0.86s" cx="714" cy="149" r="1.8" fill="#FF7C1E"/>
        <text x="724" y="154" class="forge-label" font-size="12" font-weight="800" fill="#F6EDDB">litellm-rs</text><text x="1142" y="154" text-anchor="end" class="forge-mono" font-size="7.5" letter-spacing="1.3" fill="#66A9CC">ROUTE</text>
        <text x="724" y="171" class="forge-label" font-size="8.7" fill="#A99C86">High-performance Rust gateway for 100+ LLM APIs through…</text><path d="M724 180H1142" stroke="#3F3226"/>
      </g><g class="forge-rise" style="animation-delay:265ms">
        <path d="M585 178.5C622 178.5 644 202 686 202" fill="none" stroke="#66A9CC" stroke-opacity=".72"/><path class="forge-pour" d="M585 178.5C622 178.5 644 202 686 202" fill="none" stroke="#FF7C1E" stroke-width="1.5"/>
        <use href="#forge-ingot" transform="translate(700 202)"/><circle class="forge-spark" style="animation-delay:1.29s" cx="714" cy="193" r="1.8" fill="#FF7C1E"/>
        <text x="724" y="198" class="forge-label" font-size="12" font-weight="800" fill="#F6EDDB">harness</text><text x="1142" y="198" text-anchor="end" class="forge-mono" font-size="7.5" letter-spacing="1.3" fill="#66A9CC">ORCHESTRATE</text>
        <text x="724" y="215" class="forge-label" font-size="8.7" fill="#A99C86">Governed fleets of parallel coding agents, powered by a…</text><path d="M724 224H1142" stroke="#3F3226"/>
      </g><g class="forge-rise" style="animation-delay:320ms">
        <path d="M585 187.5C622 187.5 644 246 686 246" fill="none" stroke="#66A9CC" stroke-opacity=".72"/><path class="forge-pour" d="M585 187.5C622 187.5 644 246 686 246" fill="none" stroke="#FF7C1E" stroke-width="1.5"/>
        <use href="#forge-ingot" transform="translate(700 246)"/><circle class="forge-spark" style="animation-delay:1.72s" cx="714" cy="237" r="1.8" fill="#FF7C1E"/>
        <text x="724" y="242" class="forge-label" font-size="12" font-weight="800" fill="#F6EDDB">vibeguard</text><text x="1142" y="242" text-anchor="end" class="forge-mono" font-size="7.5" letter-spacing="1.3" fill="#66A9CC">TRUST</text>
        <text x="724" y="259" class="forge-label" font-size="8.7" fill="#A99C86">Rules, hooks, and guards against hallucinated or unverif…</text><path d="M724 268H1142" stroke="#3F3226"/>
      </g><g class="forge-rise" style="animation-delay:375ms">
        <path d="M585 196.5C622 196.5 644 290 686 290" fill="none" stroke="#66A9CC" stroke-opacity=".72"/><path class="forge-pour" d="M585 196.5C622 196.5 644 290 686 290" fill="none" stroke="#FF7C1E" stroke-width="1.5"/>
        <use href="#forge-ingot" transform="translate(700 290)"/><circle class="forge-spark" style="animation-delay:2.15s" cx="714" cy="281" r="1.8" fill="#FF7C1E"/>
        <text x="724" y="286" class="forge-label" font-size="12" font-weight="800" fill="#F6EDDB">remem</text><text x="1142" y="286" text-anchor="end" class="forge-mono" font-size="7.5" letter-spacing="1.3" fill="#66A9CC">REMEMBER</text>
        <text x="724" y="303" class="forge-label" font-size="8.7" fill="#A99C86">Local-first, auditable memory for long-running Claude Co…</text><path d="M724 312H1142" stroke="#3F3226"/>
      </g>
      <circle cx="500" cy="315" r="3" fill="#00A7D1"/><circle cx="512" cy="315" r="3" fill="#E84A8A"/>
    </svg>