<svg xmlns="http://www.w3.org/2000/svg" width="1200" height="330" viewBox="0 0 1200 330" role="img" aria-label="lifcc connected workbench" data-mode="light">
      <defs>
    <pattern id="perf" width="18" height="18" patternUnits="userSpaceOnUse"><circle cx="2" cy="2" r="1.15" fill="#B5C6C2" opacity=".5"/></pattern>
    <linearGradient id="board-glow" x1="0" y1="0" x2="1" y2="1"><stop stop-color="#EDF1EC"/><stop offset=".62" stop-color="#EDF1EC"/><stop offset="1" stop-color="#00A7D1" stop-opacity=".07"/></linearGradient>
    <filter id="module-shadow" x="-20%" y="-20%" width="140%" height="150%"><feDropShadow dx="0" dy="5" stdDeviation="3" flood-color="#9AA8A4" flood-opacity=".34"/></filter>
  </defs><style>
    .display{font-family:"Arial Narrow","Avenir Next Condensed",Impact,sans-serif}.body{font-family:"Avenir Next",Avenir,Helvetica,sans-serif}.mono{font-family:ui-monospace,SFMono-Regular,Menlo,monospace}
    .boot{animation:boot .65s cubic-bezier(.2,.8,.2,1)}.signal{stroke-dasharray:4 8;animation:signal 7s linear infinite}.dial{transform-box:fill-box;transform-origin:center;animation:dial 14s linear infinite}
    @keyframes boot{from{opacity:.3;transform:translateY(7px)}to{opacity:1;transform:translateY(0)}}@keyframes signal{to{stroke-dashoffset:-120}}@keyframes dial{to{transform:rotate(360deg)}}
    @media(prefers-reduced-motion:reduce){.boot,.signal,.dial{animation:none}}
  </style><rect width="1200" height="330" fill="#DCE2DE"/><rect x="10" y="10" width="1180" height="310" rx="12" fill="url(#board-glow)" stroke="#B5C6C2"/><rect x="10" y="10" width="1180" height="310" rx="12" fill="url(#perf)"/>
      <path d="M24 27H154L172 45V303H24Z" fill="#F8FAF5" stroke="#B5C6C2"/><text x="51" y="61" class="mono" font-size="8" letter-spacing="2" fill="#00A7D1">SIGNAL MAP</text><text x="51" y="104" class="display" font-size="39" font-weight="900" fill="#142022">08</text><text x="51" y="123" class="mono" font-size="7" letter-spacing="1.4" fill="#627471">MODULES ONLINE</text><path d="M51 148H144" stroke="#B5C6C2"/>
      <circle cx="58" cy="179" r="4" fill="#00A7D1"/><text x="73" y="182" class="mono" font-size="7" letter-spacing="1.3" fill="#627471">PRIMARY</text><circle cx="58" cy="207" r="4" fill="#E84A8A"/><text x="73" y="210" class="mono" font-size="7" letter-spacing="1.3" fill="#627471">SECONDARY</text><path d="M51 237H144" stroke="#B5C6C2"/><text x="51" y="263" class="mono" font-size="7" letter-spacing="1.2" fill="#142022">BUS / 01</text><text x="51" y="283" class="mono" font-size="7" letter-spacing="1.2" fill="#627471">STATUS / LIVE</text>
      <path d="M302 72L520 72L738 72L956 72L326 159L544 159L762 159L980 159" fill="none" stroke="#B5C6C2" stroke-width="5"/><path class="signal" d="M302 72L520 72L738 72L956 72L326 159L544 159L762 159L980 159" fill="none" stroke="#00A7D1" stroke-width="2"/><circle cx="302" cy="72" r="8" fill="#EDF1EC" stroke="#00A7D1"/><circle cx="520" cy="72" r="8" fill="#EDF1EC" stroke="#00A7D1"/><circle cx="738" cy="72" r="8" fill="#EDF1EC" stroke="#00A7D1"/><circle cx="956" cy="72" r="8" fill="#EDF1EC" stroke="#00A7D1"/><circle cx="326" cy="159" r="8" fill="#EDF1EC" stroke="#00A7D1"/><circle cx="544" cy="159" r="8" fill="#EDF1EC" stroke="#00A7D1"/><circle cx="762" cy="159" r="8" fill="#EDF1EC" stroke="#00A7D1"/><circle cx="980" cy="159" r="8" fill="#EDF1EC" stroke="#00A7D1"/><g class="boot" style="animation-delay:0ms" filter="url(#module-shadow)"><path d="M210 43H376L394 61V105H210Z" fill="#F8FAF5" stroke="#B5C6C2"/><rect x="210" y="43" width="5" height="62" fill="#00A7D1"/>
          <text x="228" y="65" class="mono" font-size="7" letter-spacing="1.4" fill="#00A7D1">01 / DIRECT</text><text x="228" y="88" class="body" font-size="11" font-weight="800" fill="#142022">sage</text><circle cx="375" cy="86" r="3" fill="#00A7D1"/></g><g class="boot" style="animation-delay:45ms" filter="url(#module-shadow)"><path d="M428 43H594L612 61V105H428Z" fill="#F8FAF5" stroke="#B5C6C2"/><rect x="428" y="43" width="5" height="62" fill="#00A7D1"/>
          <text x="446" y="65" class="mono" font-size="7" letter-spacing="1.4" fill="#00A7D1">02 / EXTEND</text><text x="446" y="88" class="body" font-size="11" font-weight="800" fill="#142022">claude-skill-registry</text><circle cx="593" cy="86" r="3" fill="#00A7D1"/></g><g class="boot" style="animation-delay:90ms" filter="url(#module-shadow)"><path d="M646 43H812L830 61V105H646Z" fill="#F8FAF5" stroke="#B5C6C2"/><rect x="646" y="43" width="5" height="62" fill="#00A7D1"/>
          <text x="664" y="65" class="mono" font-size="7" letter-spacing="1.4" fill="#00A7D1">03 / TRUST</text><text x="664" y="88" class="body" font-size="11" font-weight="800" fill="#142022">vibeguard</text><circle cx="811" cy="86" r="3" fill="#00A7D1"/></g><g class="boot" style="animation-delay:135ms" filter="url(#module-shadow)"><path d="M864 43H1030L1048 61V105H864Z" fill="#F8FAF5" stroke="#B5C6C2"/><rect x="864" y="43" width="5" height="62" fill="#00A7D1"/>
          <text x="882" y="65" class="mono" font-size="7" letter-spacing="1.4" fill="#00A7D1">04 / REMEMBER</text><text x="882" y="88" class="body" font-size="11" font-weight="800" fill="#142022">remem</text><circle cx="1029" cy="86" r="3" fill="#00A7D1"/></g><g class="boot" style="animation-delay:180ms" filter="url(#module-shadow)"><path d="M234 130H400L418 148V192H234Z" fill="#F8FAF5" stroke="#B5C6C2"/><rect x="234" y="130" width="5" height="62" fill="#E84A8A"/>
          <text x="252" y="152" class="mono" font-size="7" letter-spacing="1.4" fill="#E84A8A">05 / ORCHESTRATE</text><text x="252" y="175" class="body" font-size="11" font-weight="800" fill="#142022">harness</text><circle cx="399" cy="173" r="3" fill="#E84A8A"/></g><g class="boot" style="animation-delay:225ms" filter="url(#module-shadow)"><path d="M452 130H618L636 148V192H452Z" fill="#F8FAF5" stroke="#B5C6C2"/><rect x="452" y="130" width="5" height="62" fill="#E84A8A"/>
          <text x="470" y="152" class="mono" font-size="7" letter-spacing="1.4" fill="#E84A8A">06 / ROUTE</text><text x="470" y="175" class="body" font-size="11" font-weight="800" fill="#142022">litellm-rs</text><circle cx="617" cy="173" r="3" fill="#E84A8A"/></g><g class="boot" style="animation-delay:270ms" filter="url(#module-shadow)"><path d="M670 130H836L854 148V192H670Z" fill="#F8FAF5" stroke="#B5C6C2"/><rect x="670" y="130" width="5" height="62" fill="#E84A8A"/>
          <text x="688" y="152" class="mono" font-size="7" letter-spacing="1.4" fill="#E84A8A">07 / GOVERN</text><text x="688" y="175" class="body" font-size="11" font-weight="800" fill="#142022">specrail</text><circle cx="835" cy="173" r="3" fill="#E84A8A"/></g><g class="boot" style="animation-delay:315ms" filter="url(#module-shadow)"><path d="M888 130H1054L1072 148V192H888Z" fill="#F8FAF5" stroke="#B5C6C2"/><rect x="888" y="130" width="5" height="62" fill="#E84A8A"/>
          <text x="906" y="152" class="mono" font-size="7" letter-spacing="1.4" fill="#E84A8A">08 / KEEP</text><text x="906" y="175" class="body" font-size="11" font-weight="800" fill="#142022">keepline</text><circle cx="1053" cy="173" r="3" fill="#E84A8A"/></g>
      <text x="1163" y="302" text-anchor="end" class="mono" font-size="7" letter-spacing="1.6" fill="#627471">AI AGENT INFRASTRUCTURE / CONNECTED WORKBENCH</text>
    </svg>