<svg xmlns="http://www.w3.org/2000/svg" width="1200" height="330" viewBox="0 0 1200 330" role="img" aria-label="lifcc signal topology" data-mode="light">
      <defs>
    <linearGradient id="industrial-bg" x1="0" y1="0" x2="1" y2="1"><stop stop-color="#F6FBFD"/><stop offset="1" stop-color="#FFF6FA"/></linearGradient>
    <linearGradient id="industrial-accent" x1="0" y1="0" x2="1" y2="0"><stop stop-color="#00A7D1"/><stop offset="1" stop-color="#E84A8A"/></linearGradient>
    <pattern id="industrial-grid" width="40" height="40" patternUnits="userSpaceOnUse"><path d="M40 0H0V40" fill="none" stroke="#D7E7ED" stroke-width="1"/></pattern>
    <pattern id="industrial-dots" width="18" height="18" patternUnits="userSpaceOnUse"><circle cx="2" cy="2" r="1" fill="#D7E7ED"/></pattern>
    <filter id="industrial-glow" x="-80%" y="-80%" width="260%" height="260%"><feGaussianBlur stdDeviation="6" result="b"/><feMerge><feMergeNode in="b"/><feMergeNode in="SourceGraphic"/></feMerge></filter>
  </defs><style>
    text{font-family:ui-monospace,SFMono-Regular,Menlo,Monaco,Consolas,"Liberation Mono",monospace}
    .micro{font-size:9px;letter-spacing:2px}.label{font-size:11px;letter-spacing:2.5px;font-weight:700}
    .flow{stroke-dasharray:6 9;animation:flow 7s linear infinite}.pulse{transform-box:fill-box;transform-origin:center;animation:pulse 2.4s ease-in-out infinite}.scan{animation:scan 5s ease-in-out infinite}.flicker{animation:flicker 2.2s ease-in-out infinite}
    @keyframes flow{to{stroke-dashoffset:-150}}@keyframes pulse{50%{opacity:.35;transform:scale(.72)}}@keyframes scan{50%{opacity:.28;transform:translateX(24px)}}@keyframes flicker{50%{opacity:.38}}
    @media(prefers-reduced-motion:reduce){.flow,.pulse,.scan,.flicker{animation:none}}
  </style><rect width="1200" height="330" rx="18" fill="url(#industrial-bg)"/><rect width="1200" height="330" rx="18" fill="url(#industrial-grid)" opacity=".68"/><rect width="1200" height="330" rx="18" fill="url(#industrial-dots)" opacity=".28"/>
      <text x="28" y="33" class="label" fill="#00A7D1">SIGNAL GRID / NETWORK TOPOLOGY</text><text x="1170" y="33" text-anchor="end" class="micro" fill="#506D7A">08 NODES · MESH ONLINE</text><path d="M110.0 105L110.0 235" stroke="#A9C4CF"/><path d="M110.0 105L436.7 105" stroke="#A9C4CF"/><path d="M110.0 235L436.7 105" stroke="#A9C4CF"/><path d="M110.0 235L436.7 235" stroke="#A9C4CF"/><path d="M436.7 105L436.7 235" stroke="#A9C4CF"/><path d="M436.7 105L763.3 105" stroke="#A9C4CF"/><path d="M436.7 235L763.3 105" stroke="#A9C4CF"/><path d="M436.7 235L763.3 235" stroke="#A9C4CF"/><path d="M763.3 105L763.3 235" stroke="#A9C4CF"/><path d="M763.3 105L1090.0 105" stroke="#A9C4CF"/><path d="M763.3 235L1090.0 105" stroke="#A9C4CF"/><path d="M763.3 235L1090.0 235" stroke="#A9C4CF"/><path d="M1090.0 105L1090.0 235" stroke="#A9C4CF"/><path class="flow" d="M64 170H1136" stroke="url(#industrial-accent)" stroke-width="2"/>
      <g transform="translate(600 170)"><circle r="39" fill="#F6FBFD" stroke="#A9C4CF"/><circle r="28" fill="none" stroke="url(#industrial-accent)" stroke-dasharray="5 6"/><circle class="pulse" r="6" fill="#00A7D1"/></g><g><circle cx="110.0" cy="105" r="24" fill="#FFFFFF" stroke="#00A7D1" stroke-width="2"/><circle class="pulse" cx="110.0" cy="105" r="5" fill="#00A7D1"/><text x="110.0" y="108" text-anchor="middle" font-size="7" font-weight="700" fill="#00A7D1">01</text>
          <text x="110.0" y="69" text-anchor="middle" font-size="9" font-weight="800" fill="#102934">DIRECT</text><text x="110.0" y="81" text-anchor="middle" font-size="7" fill="#506D7A">sage</text></g><g><circle cx="110.0" cy="235" r="24" fill="#FFFFFF" stroke="#00A7D1" stroke-width="2"/><circle class="pulse" cx="110.0" cy="235" r="5" fill="#00A7D1"/><text x="110.0" y="238" text-anchor="middle" font-size="7" font-weight="700" fill="#00A7D1">02</text>
          <text x="110.0" y="278" text-anchor="middle" font-size="9" font-weight="800" fill="#102934">EXTEND</text><text x="110.0" y="290" text-anchor="middle" font-size="7" fill="#506D7A">claude-skill-registry</text></g><g><circle cx="436.7" cy="105" r="24" fill="#FFFFFF" stroke="#00A7D1" stroke-width="2"/><circle class="pulse" cx="436.7" cy="105" r="5" fill="#00A7D1"/><text x="436.7" y="108" text-anchor="middle" font-size="7" font-weight="700" fill="#00A7D1">03</text>
          <text x="436.7" y="69" text-anchor="middle" font-size="9" font-weight="800" fill="#102934">TRUST</text><text x="436.7" y="81" text-anchor="middle" font-size="7" fill="#506D7A">vibeguard</text></g><g><circle cx="436.7" cy="235" r="24" fill="#FFFFFF" stroke="#00A7D1" stroke-width="2"/><circle class="pulse" cx="436.7" cy="235" r="5" fill="#00A7D1"/><text x="436.7" y="238" text-anchor="middle" font-size="7" font-weight="700" fill="#00A7D1">04</text>
          <text x="436.7" y="278" text-anchor="middle" font-size="9" font-weight="800" fill="#102934">REMEMBER</text><text x="436.7" y="290" text-anchor="middle" font-size="7" fill="#506D7A">remem</text></g><g><circle cx="763.3" cy="105" r="24" fill="#FFFFFF" stroke="#E84A8A" stroke-width="2"/><circle class="pulse" cx="763.3" cy="105" r="5" fill="#E84A8A"/><text x="763.3" y="108" text-anchor="middle" font-size="7" font-weight="700" fill="#E84A8A">05</text>
          <text x="763.3" y="69" text-anchor="middle" font-size="9" font-weight="800" fill="#102934">ORCHESTRATE</text><text x="763.3" y="81" text-anchor="middle" font-size="7" fill="#506D7A">harness</text></g><g><circle cx="763.3" cy="235" r="24" fill="#FFFFFF" stroke="#E84A8A" stroke-width="2"/><circle class="pulse" cx="763.3" cy="235" r="5" fill="#E84A8A"/><text x="763.3" y="238" text-anchor="middle" font-size="7" font-weight="700" fill="#E84A8A">06</text>
          <text x="763.3" y="278" text-anchor="middle" font-size="9" font-weight="800" fill="#102934">ROUTE</text><text x="763.3" y="290" text-anchor="middle" font-size="7" fill="#506D7A">litellm-rs</text></g><g><circle cx="1090.0" cy="105" r="24" fill="#FFFFFF" stroke="#E84A8A" stroke-width="2"/><circle class="pulse" cx="1090.0" cy="105" r="5" fill="#E84A8A"/><text x="1090.0" y="108" text-anchor="middle" font-size="7" font-weight="700" fill="#E84A8A">07</text>
          <text x="1090.0" y="69" text-anchor="middle" font-size="9" font-weight="800" fill="#102934">GOVERN</text><text x="1090.0" y="81" text-anchor="middle" font-size="7" fill="#506D7A">specrail</text></g><g><circle cx="1090.0" cy="235" r="24" fill="#FFFFFF" stroke="#E84A8A" stroke-width="2"/><circle class="pulse" cx="1090.0" cy="235" r="5" fill="#E84A8A"/><text x="1090.0" y="238" text-anchor="middle" font-size="7" font-weight="700" fill="#E84A8A">08</text>
          <text x="1090.0" y="278" text-anchor="middle" font-size="9" font-weight="800" fill="#102934">KEEP</text><text x="1090.0" y="290" text-anchor="middle" font-size="7" fill="#506D7A">keepline</text></g><rect x="1" y="1" width="1198" height="328" rx="18" fill="none" stroke="#E84A8A" stroke-opacity=".6"/></svg>